# xmcd
#
# Track frame offsets: 
#        150
#        18980
#        48436
#        81832
#        109106
#        162178
#        203720
#        236412
#
# Disc length: 3472 seconds
#
# Revision: 0
# Processed by: cddbd v1.5.2PL0 Copyright (c) Steve Scherf et al.
# Submitted via: ExactAudioCopyFreeDBPlugin 1.0
#
DISCID=5a0d8e08
DTITLE=LUTHER ALLISON and BAND - Ohne Filter Extra [Live]
DYEAR=1991
DGENRE=Blues
TTITLE0=BERNARD ALLISON and LUTHER ALLISON and BAND - I Think I Need Some 
TTITLE0=Help  [live]
TTITLE1=BERNARD ALLISON and LUTHER ALLISON and BAND - Next Generation  [li
TTITLE1=ve]
TTITLE2=All Your Love  [live]
TTITLE3=Life Is A Bitch  [live]
TTITLE4=Bad News Is Coming  [live]
TTITLE5=Parking Lot  [live]
TTITLE6=L.A.'s Knocking On Your Door  [live]
TTITLE7=Freedom  [live]
EXTD=
EXTT0=
EXTT1=
EXTT2=
EXTT3=
EXTT4=
EXTT5=
EXTT6=
EXTT7=
PLAYORDER=
